<svg width="241" height="34" viewBox="0 0 241 34" fill="none" xmlns="http://www.w3.org/2000/svg">
<path fill-rule="evenodd" clip-rule="evenodd" d="M4.49995 1.00002H236.5C238.709 1.00002 240.5 2.79086 240.5 5.00001V29C240.5 31.2091 238.709 33 236.5 33H4.49995C2.29095 33 0.500075 31.2091 0.500075 29V5.00001C0.500075 2.79086 2.29095 1.00002 4.49995 1.00002Z" fill="black" fill-opacity="0.01"/>
<path d="M4.49995 1.25002H236.5C238.571 1.25002 240.25 2.92893 240.25 5.00001V29C240.25 31.0711 238.571 32.75 236.5 32.75H4.49995C2.42902 32.75 0.750075 31.0711 0.750075 29V5.00001C0.750075 2.92893 2.42902 1.25002 4.49995 1.25002Z" stroke="black" stroke-opacity="0.24" stroke-width="0.5"/>
<path d="M22.856 14.037C22.814 14.107 22.7697 14.1607 22.723 14.198C22.6763 14.2307 22.6157 14.247 22.541 14.247C22.4617 14.247 22.3683 14.2073 22.261 14.128C22.1583 14.0487 22.0253 13.9623 21.862 13.869C21.7033 13.771 21.5097 13.6823 21.281 13.603C21.057 13.5237 20.784 13.484 20.462 13.484C20.1587 13.484 19.8903 13.526 19.657 13.61C19.4237 13.6893 19.2277 13.799 19.069 13.939C18.915 14.079 18.7983 14.2447 18.719 14.436C18.6397 14.6227 18.6 14.8257 18.6 15.045C18.6 15.325 18.6677 15.5583 18.803 15.745C18.943 15.927 19.125 16.0833 19.349 16.214C19.5777 16.3447 19.8343 16.459 20.119 16.557C20.4083 16.6503 20.7023 16.7483 21.001 16.851C21.3043 16.9537 21.5983 17.0703 21.883 17.201C22.1723 17.327 22.429 17.488 22.653 17.684C22.8817 17.88 23.0637 18.1203 23.199 18.405C23.339 18.6897 23.409 19.0397 23.409 19.455C23.409 19.8937 23.3343 20.3067 23.185 20.694C23.0357 21.0767 22.8163 21.4103 22.527 21.695C22.2423 21.9797 21.89 22.2037 21.47 22.367C21.0547 22.5303 20.581 22.612 20.049 22.612C19.4003 22.612 18.8077 22.4953 18.271 22.262C17.739 22.024 17.284 21.7043 16.906 21.303L17.298 20.659C17.3353 20.6077 17.3797 20.5657 17.431 20.533C17.487 20.4957 17.5477 20.477 17.613 20.477C17.711 20.477 17.823 20.5307 17.949 20.638C18.075 20.7407 18.2313 20.855 18.418 20.981C18.6093 21.107 18.838 21.2237 19.104 21.331C19.3747 21.4337 19.7037 21.485 20.091 21.485C20.413 21.485 20.7 21.4407 20.952 21.352C21.204 21.2633 21.4163 21.1397 21.589 20.981C21.7663 20.8177 21.9017 20.624 21.995 20.4C22.0883 20.176 22.135 19.9263 22.135 19.651C22.135 19.3477 22.065 19.1003 21.925 18.909C21.7897 18.713 21.61 18.5497 21.386 18.419C21.162 18.2883 20.9053 18.1787 20.616 18.09C20.3313 17.9967 20.0373 17.9033 19.734 17.81C19.4353 17.712 19.1413 17.6 18.852 17.474C18.5673 17.348 18.313 17.1847 18.089 16.984C17.865 16.7833 17.683 16.5337 17.543 16.235C17.4077 15.9317 17.34 15.5583 17.34 15.115C17.34 14.7603 17.4077 14.4173 17.543 14.086C17.683 13.7547 17.8837 13.4607 18.145 13.204C18.4063 12.9473 18.7283 12.742 19.111 12.588C19.4983 12.434 19.9417 12.357 20.441 12.357C21.001 12.357 21.512 12.4457 21.974 12.623C22.436 12.8003 22.8397 13.057 23.185 13.393L22.856 14.037ZM27.7528 15.297C28.1775 15.297 28.5695 15.3693 28.9288 15.514C29.2882 15.654 29.5985 15.8593 29.8598 16.13C30.1212 16.396 30.3242 16.7273 30.4688 17.124C30.6182 17.516 30.6928 17.964 30.6928 18.468C30.6928 18.664 30.6718 18.7947 30.6298 18.86C30.5878 18.9253 30.5085 18.958 30.3918 18.958H25.6738C25.6832 19.406 25.7438 19.7957 25.8558 20.127C25.9678 20.4583 26.1218 20.736 26.3178 20.96C26.5138 21.1793 26.7472 21.345 27.0178 21.457C27.2885 21.5643 27.5918 21.618 27.9278 21.618C28.2405 21.618 28.5088 21.583 28.7328 21.513C28.9615 21.4383 29.1575 21.359 29.3208 21.275C29.4842 21.191 29.6195 21.114 29.7268 21.044C29.8388 20.9693 29.9345 20.932 30.0138 20.932C30.1165 20.932 30.1958 20.9717 30.2518 21.051L30.6018 21.506C30.4478 21.6927 30.2635 21.856 30.0488 21.996C29.8342 22.1313 29.6032 22.2433 29.3558 22.332C29.1132 22.4207 28.8612 22.486 28.5998 22.528C28.3385 22.5747 28.0795 22.598 27.8228 22.598C27.3328 22.598 26.8802 22.5163 26.4648 22.353C26.0542 22.185 25.6972 21.9423 25.3938 21.625C25.0952 21.303 24.8618 20.9063 24.6938 20.435C24.5258 19.9637 24.4418 19.4223 24.4418 18.811C24.4418 18.3163 24.5165 17.8543 24.6658 17.425C24.8198 16.9957 25.0392 16.6247 25.3238 16.312C25.6085 15.9947 25.9562 15.7473 26.3668 15.57C26.7775 15.388 27.2395 15.297 27.7528 15.297ZM27.7808 16.214C27.1788 16.214 26.7052 16.389 26.3598 16.739C26.0145 17.0843 25.7998 17.565 25.7158 18.181H29.5728C29.5728 17.8917 29.5332 17.628 29.4538 17.39C29.3745 17.1473 29.2578 16.9397 29.1038 16.767C28.9498 16.5897 28.7608 16.4543 28.5368 16.361C28.3175 16.263 28.0655 16.214 27.7808 16.214ZM37.4956 22.5H36.9426C36.8213 22.5 36.7233 22.4813 36.6486 22.444C36.574 22.4067 36.525 22.3273 36.5016 22.206L36.3616 21.548C36.175 21.716 35.993 21.8677 35.8156 22.003C35.6383 22.1337 35.4516 22.2457 35.2556 22.339C35.0596 22.4277 34.8496 22.4953 34.6256 22.542C34.4063 22.5887 34.1613 22.612 33.8906 22.612C33.6153 22.612 33.3563 22.5747 33.1136 22.5C32.8756 22.4207 32.668 22.304 32.4906 22.15C32.3133 21.996 32.171 21.8023 32.0636 21.569C31.961 21.331 31.9096 21.051 31.9096 20.729C31.9096 20.449 31.9866 20.1807 32.1406 19.924C32.2946 19.6627 32.542 19.4317 32.8826 19.231C33.228 19.0303 33.6783 18.867 34.2336 18.741C34.789 18.6103 35.468 18.5357 36.2706 18.517V17.964C36.2706 17.4133 36.1516 16.998 35.9136 16.718C35.6803 16.4333 35.3326 16.291 34.8706 16.291C34.5673 16.291 34.3106 16.3307 34.1006 16.41C33.8953 16.4847 33.7156 16.571 33.5616 16.669C33.4123 16.7623 33.2816 16.8487 33.1696 16.928C33.0623 17.0027 32.955 17.04 32.8476 17.04C32.7636 17.04 32.689 17.019 32.6236 16.977C32.563 16.9303 32.514 16.8743 32.4766 16.809L32.2526 16.41C32.6446 16.032 33.067 15.7497 33.5196 15.563C33.9723 15.3763 34.474 15.283 35.0246 15.283C35.4213 15.283 35.7736 15.3483 36.0816 15.479C36.3896 15.6097 36.6486 15.7917 36.8586 16.025C37.0686 16.2583 37.2273 16.5407 37.3346 16.872C37.442 17.2033 37.4956 17.5673 37.4956 17.964V22.5ZM34.2616 21.737C34.481 21.737 34.6816 21.716 34.8636 21.674C35.0456 21.6273 35.216 21.5643 35.3746 21.485C35.538 21.401 35.692 21.3007 35.8366 21.184C35.986 21.0673 36.1306 20.9343 36.2706 20.785V19.308C35.6966 19.3267 35.209 19.3733 34.8076 19.448C34.4063 19.518 34.0796 19.6113 33.8276 19.728C33.5756 19.8447 33.3913 19.9823 33.2746 20.141C33.1626 20.2997 33.1066 20.477 33.1066 20.673C33.1066 20.8597 33.137 21.0207 33.1976 21.156C33.2583 21.2913 33.34 21.4033 33.4426 21.492C33.5453 21.576 33.6666 21.639 33.8066 21.681C33.9466 21.7183 34.0983 21.737 34.2616 21.737ZM39.3833 22.5V15.409H40.0973C40.2327 15.409 40.326 15.4347 40.3773 15.486C40.4287 15.5373 40.4637 15.626 40.4823 15.752L40.5663 16.858C40.809 16.3633 41.1077 15.9783 41.4623 15.703C41.8217 15.423 42.2417 15.283 42.7223 15.283C42.9183 15.283 43.0957 15.3063 43.2543 15.353C43.413 15.395 43.56 15.4557 43.6953 15.535L43.5343 16.466C43.5017 16.5827 43.4293 16.641 43.3173 16.641C43.252 16.641 43.1517 16.62 43.0163 16.578C42.881 16.5313 42.692 16.508 42.4493 16.508C42.0153 16.508 41.6513 16.634 41.3573 16.886C41.068 17.138 40.8253 17.5043 40.6293 17.985V22.5H39.3833ZM49.8668 16.669C49.8295 16.7203 49.7921 16.76 49.7548 16.788C49.7175 16.816 49.6638 16.83 49.5938 16.83C49.5238 16.83 49.4468 16.802 49.3628 16.746C49.2835 16.6853 49.1808 16.62 49.0548 16.55C48.9288 16.48 48.7748 16.417 48.5928 16.361C48.4155 16.3003 48.1961 16.27 47.9348 16.27C47.5895 16.27 47.2838 16.333 47.0178 16.459C46.7518 16.5803 46.5278 16.7577 46.3458 16.991C46.1685 17.2243 46.0331 17.5067 45.9398 17.838C45.8511 18.1693 45.8068 18.5403 45.8068 18.951C45.8068 19.3803 45.8558 19.763 45.9538 20.099C46.0518 20.4303 46.1895 20.7103 46.3668 20.939C46.5441 21.163 46.7588 21.3357 47.0108 21.457C47.2675 21.5737 47.5545 21.632 47.8718 21.632C48.1751 21.632 48.4248 21.597 48.6208 21.527C48.8168 21.4523 48.9801 21.3707 49.1108 21.282C49.2415 21.1933 49.3488 21.114 49.4328 21.044C49.5168 20.9693 49.6008 20.932 49.6848 20.932C49.7921 20.932 49.8715 20.9717 49.9228 21.051L50.2728 21.506C49.9648 21.884 49.5798 22.1617 49.1178 22.339C48.6558 22.5117 48.1681 22.598 47.6548 22.598C47.2115 22.598 46.7985 22.5163 46.4158 22.353C46.0378 22.1897 45.7088 21.954 45.4288 21.646C45.1488 21.3333 44.9271 20.9507 44.7638 20.498C44.6051 20.0453 44.5258 19.5297 44.5258 18.951C44.5258 18.4237 44.5981 17.936 44.7428 17.488C44.8921 17.04 45.1068 16.655 45.3868 16.333C45.6715 16.0063 46.0215 15.752 46.4368 15.57C46.8521 15.388 47.3281 15.297 47.8648 15.297C48.3595 15.297 48.7981 15.3787 49.1808 15.542C49.5635 15.7007 49.9018 15.927 50.1958 16.221L49.8668 16.669ZM51.565 22.5V12.189H52.811V16.361C53.1143 16.039 53.4503 15.7823 53.819 15.591C54.1876 15.395 54.6123 15.297 55.093 15.297C55.4803 15.297 55.821 15.3623 56.115 15.493C56.4136 15.619 56.661 15.801 56.857 16.039C57.0576 16.2723 57.2093 16.5547 57.312 16.886C57.4146 17.2173 57.466 17.5837 57.466 17.985V22.5H56.22V17.985C56.22 17.4483 56.0963 17.033 55.849 16.739C55.6063 16.4403 55.233 16.291 54.729 16.291C54.3603 16.291 54.015 16.3797 53.693 16.557C53.3756 16.7343 53.0816 16.9747 52.811 17.278V22.5H51.565ZM58.9383 21.73C58.9383 21.6087 58.9593 21.4943 59.0013 21.387C59.0479 21.2797 59.1086 21.1863 59.1833 21.107C59.2626 21.0277 59.3559 20.9647 59.4633 20.918C59.5706 20.8713 59.6849 20.848 59.8063 20.848C59.9276 20.848 60.0419 20.8713 60.1493 20.918C60.2566 20.9647 60.3499 21.0277 60.4293 21.107C60.5086 21.1863 60.5693 21.2797 60.6113 21.387C60.6579 21.4943 60.6813 21.6087 60.6813 21.73C60.6813 21.856 60.6579 21.9727 60.6113 22.08C60.5693 22.1827 60.5086 22.2737 60.4293 22.353C60.3499 22.4323 60.2566 22.493 60.1493 22.535C60.0419 22.5817 59.9276 22.605 59.8063 22.605C59.6849 22.605 59.5706 22.5817 59.4633 22.535C59.3559 22.493 59.2626 22.4323 59.1833 22.353C59.1086 22.2737 59.0479 22.1827 59.0013 22.08C58.9593 21.9727 58.9383 21.856 58.9383 21.73ZM61.9051 21.73C61.9051 21.6087 61.9261 21.4943 61.9681 21.387C62.0147 21.2797 62.0754 21.1863 62.1501 21.107C62.2294 21.0277 62.3227 20.9647 62.4301 20.918C62.5374 20.8713 62.6517 20.848 62.7731 20.848C62.8944 20.848 63.0087 20.8713 63.1161 20.918C63.2234 20.9647 63.3167 21.0277 63.3961 21.107C63.4754 21.1863 63.5361 21.2797 63.5781 21.387C63.6247 21.4943 63.6481 21.6087 63.6481 21.73C63.6481 21.856 63.6247 21.9727 63.5781 22.08C63.5361 22.1827 63.4754 22.2737 63.3961 22.353C63.3167 22.4323 63.2234 22.493 63.1161 22.535C63.0087 22.5817 62.8944 22.605 62.7731 22.605C62.6517 22.605 62.5374 22.5817 62.4301 22.535C62.3227 22.493 62.2294 22.4323 62.1501 22.353C62.0754 22.2737 62.0147 22.1827 61.9681 22.08C61.9261 21.9727 61.9051 21.856 61.9051 21.73ZM64.8719 21.73C64.8719 21.6087 64.8929 21.4943 64.9349 21.387C64.9815 21.2797 65.0422 21.1863 65.1169 21.107C65.1962 21.0277 65.2895 20.9647 65.3969 20.918C65.5042 20.8713 65.6185 20.848 65.7399 20.848C65.8612 20.848 65.9755 20.8713 66.0829 20.918C66.1902 20.9647 66.2835 21.0277 66.3629 21.107C66.4422 21.1863 66.5029 21.2797 66.5449 21.387C66.5915 21.4943 66.6149 21.6087 66.6149 21.73C66.6149 21.856 66.5915 21.9727 66.5449 22.08C66.5029 22.1827 66.4422 22.2737 66.3629 22.353C66.2835 22.4323 66.1902 22.493 66.0829 22.535C65.9755 22.5817 65.8612 22.605 65.7399 22.605C65.6185 22.605 65.5042 22.5817 65.3969 22.535C65.2895 22.493 65.1962 22.4323 65.1169 22.353C65.0422 22.2737 64.9815 22.1827 64.9349 22.08C64.8929 21.9727 64.8719 21.856 64.8719 21.73Z" fill="#8D8D8D"/>
<path opacity="0.5" fill-rule="evenodd" clip-rule="evenodd" d="M224.364 23.866C224.187 24.04 223.9 24.04 223.723 23.866L220.095 20.2957C219.083 21.1041 217.794 21.5901 216.389 21.5901C213.137 21.5901 210.5 18.9956 210.5 15.7951C210.5 12.5945 213.137 10 216.389 10C219.641 10 222.278 12.5945 222.278 15.7951C222.278 17.2915 221.696 18.6511 220.75 19.6793L224.364 23.2354C224.541 23.4097 224.541 23.6919 224.364 23.866ZM216.389 10.8916C213.637 10.8916 211.406 13.0869 211.406 15.7951C211.406 18.5032 213.637 20.6986 216.389 20.6986C219.141 20.6986 221.372 18.5032 221.372 15.7951C221.372 13.0869 219.141 10.8916 216.389 10.8916Z" fill="black"/>
</svg>
